<svg width="34" height="34" viewBox="0 0 34 34" fill="none" xmlns="http://www.w3.org/2000/svg">
<g clip-path="url(#clip0_1013_2120)">
<path d="M23.6667 29.5V26.6667C23.6667 25.1638 23.0696 23.7224 22.0069 22.6597C20.9442 21.597 19.5029 21 18 21H6.66667C5.16377 21 3.72243 21.597 2.65973 22.6597C1.59702 23.7224 1 25.1638 1 26.6667V29.5" stroke="#132D46" stroke-width="3" stroke-linecap="round" stroke-linejoin="round"/>
<path d="M12.3332 15.3333C15.4628 15.3333 17.9998 12.7963 17.9998 9.66667C17.9998 6.53705 15.4628 4 12.3332 4C9.20356 4 6.6665 6.53705 6.6665 9.66667C6.6665 12.7963 9.20356 15.3333 12.3332 15.3333Z" stroke="#132D46" stroke-width="3" stroke-linecap="round" stroke-linejoin="round"/>
<path d="M32.1665 29.4999V26.6666C32.1656 25.411 31.7477 24.1913 30.9784 23.199C30.2092 22.2067 29.1322 21.498 27.9165 21.1841" stroke="#132D46" stroke-width="3" stroke-linecap="round" stroke-linejoin="round"/>
<path d="M22.25 4.18408C23.4689 4.49618 24.5493 5.20508 25.3208 6.19902C26.0923 7.19297 26.5111 8.41542 26.5111 9.67367C26.5111 10.9319 26.0923 12.1544 25.3208 13.1483C24.5493 14.1423 23.4689 14.8512 22.25 15.1632" stroke="#132D46" stroke-width="3" stroke-linecap="round" stroke-linejoin="round"/>
</g>
<defs>
<clipPath id="clip0_1013_2120">
<rect width="34" height="34" fill="white"/>
</clipPath>
</defs>
</svg>
