<svg width="34" height="34" viewBox="0 0 34 34" fill="none" xmlns="http://www.w3.org/2000/svg">
<g clip-path="url(#clip0_1013_1539)">
<path d="M16.5835 20.8335C18.9307 20.8335 20.8335 18.9307 20.8335 16.5835C20.8335 14.2363 18.9307 12.3335 16.5835 12.3335C14.2363 12.3335 12.3335 14.2363 12.3335 16.5835C12.3335 18.9307 14.2363 20.8335 16.5835 20.8335Z" stroke="#132D46" stroke-width="3" stroke-linecap="round" stroke-linejoin="round"/>
<path d="M27.0667 20.8333C26.8781 21.2606 26.8218 21.7346 26.9052 22.1942C26.9885 22.6537 27.2076 23.0778 27.5342 23.4117L27.6192 23.4967C27.8826 23.7598 28.0916 24.0723 28.2342 24.4163C28.3768 24.7602 28.4501 25.1289 28.4501 25.5012C28.4501 25.8736 28.3768 26.2423 28.2342 26.5862C28.0916 26.9302 27.8826 27.2427 27.6192 27.5058C27.356 27.7693 27.0435 27.9782 26.6996 28.1208C26.3556 28.2634 25.9869 28.3368 25.6146 28.3368C25.2422 28.3368 24.8735 28.2634 24.5296 28.1208C24.1856 27.9782 23.8731 27.7693 23.61 27.5058L23.525 27.4208C23.1911 27.0942 22.7671 26.8752 22.3075 26.7918C21.8479 26.7085 21.374 26.7648 20.9467 26.9533C20.5277 27.1329 20.1703 27.4311 19.9186 27.8112C19.6669 28.1913 19.5318 28.6366 19.53 29.0925V29.3333C19.53 30.0848 19.2315 30.8054 18.7001 31.3368C18.1688 31.8682 17.4481 32.1667 16.6967 32.1667C15.9452 32.1667 15.2246 31.8682 14.6932 31.3368C14.1618 30.8054 13.8633 30.0848 13.8633 29.3333V29.2058C13.8524 28.7369 13.7006 28.2822 13.4277 27.9007C13.1549 27.5192 12.7735 27.2286 12.3333 27.0667C11.906 26.8781 11.4321 26.8218 10.9725 26.9052C10.5129 26.9885 10.0889 27.2076 9.755 27.5342L9.67 27.6192C9.40686 27.8826 9.09438 28.0916 8.75041 28.2342C8.40645 28.3768 8.03776 28.4501 7.66542 28.4501C7.29307 28.4501 6.92438 28.3768 6.58042 28.2342C6.23646 28.0916 5.92397 27.8826 5.66083 27.6192C5.3974 27.356 5.18842 27.0435 5.04583 26.6996C4.90325 26.3556 4.82985 25.9869 4.82985 25.6146C4.82985 25.2422 4.90325 24.8735 5.04583 24.5296C5.18842 24.1856 5.3974 23.8731 5.66083 23.61L5.74583 23.525C6.07243 23.1911 6.29151 22.7671 6.37484 22.3075C6.45817 21.8479 6.40191 21.374 6.21333 20.9467C6.03375 20.5277 5.73557 20.1703 5.35549 19.9186C4.97541 19.6669 4.53003 19.5318 4.07417 19.53H3.83333C3.08189 19.53 2.36122 19.2315 1.82986 18.7001C1.29851 18.1688 1 17.4481 1 16.6967C1 15.9452 1.29851 15.2246 1.82986 14.6932C2.36122 14.1618 3.08189 13.8633 3.83333 13.8633H3.96083C4.42974 13.8524 4.88451 13.7006 5.26601 13.4277C5.64751 13.1549 5.9381 12.7735 6.1 12.3333C6.28858 11.906 6.34483 11.4321 6.26151 10.9725C6.17818 10.5129 5.95909 10.0889 5.6325 9.755L5.5475 9.67C5.28407 9.40686 5.07508 9.09438 4.9325 8.75041C4.78991 8.40645 4.71652 8.03776 4.71652 7.66542C4.71652 7.29307 4.78991 6.92438 4.9325 6.58042C5.07508 6.23646 5.28407 5.92397 5.5475 5.66083C5.81064 5.3974 6.12312 5.18842 6.46709 5.04583C6.81105 4.90325 7.17974 4.82985 7.55208 4.82985C7.92443 4.82985 8.29312 4.90325 8.63708 5.04583C8.98104 5.18842 9.29353 5.3974 9.55667 5.66083L9.64167 5.74583C9.97555 6.07243 10.3996 6.29151 10.8592 6.37484C11.3187 6.45817 11.7927 6.40191 12.22 6.21333H12.3333C12.7523 6.03375 13.1097 5.73557 13.3614 5.35549C13.6131 4.97541 13.7482 4.53003 13.75 4.07417V3.83333C13.75 3.08189 14.0485 2.36122 14.5799 1.82986C15.1112 1.29851 15.8319 1 16.5833 1C17.3348 1 18.0554 1.29851 18.5868 1.82986C19.1182 2.36122 19.4167 3.08189 19.4167 3.83333V3.96083C19.4185 4.4167 19.5536 4.86208 19.8053 5.24216C20.057 5.62224 20.4143 5.92042 20.8333 6.1C21.2606 6.28858 21.7346 6.34483 22.1942 6.26151C22.6537 6.17818 23.0778 5.95909 23.4117 5.6325L23.4967 5.5475C23.7598 5.28407 24.0723 5.07508 24.4163 4.9325C24.7602 4.78991 25.1289 4.71652 25.5012 4.71652C25.8736 4.71652 26.2423 4.78991 26.5862 4.9325C26.9302 5.07508 27.2427 5.28407 27.5058 5.5475C27.7693 5.81064 27.9782 6.12312 28.1208 6.46709C28.2634 6.81105 28.3368 7.17974 28.3368 7.55208C28.3368 7.92443 28.2634 8.29312 28.1208 8.63708C27.9782 8.98104 27.7693 9.29353 27.5058 9.55667L27.4208 9.64167C27.0942 9.97555 26.8752 10.3996 26.7918 10.8592C26.7085 11.3187 26.7648 11.7927 26.9533 12.22V12.3333C27.1329 12.7523 27.4311 13.1097 27.8112 13.3614C28.1913 13.6131 28.6366 13.7482 29.0925 13.75H29.3333C30.0848 13.75 30.8054 14.0485 31.3368 14.5799C31.8682 15.1112 32.1667 15.8319 32.1667 16.5833C32.1667 17.3348 31.8682 18.0554 31.3368 18.5868C30.8054 19.1182 30.0848 19.4167 29.3333 19.4167H29.2058C28.75 19.4185 28.3046 19.5536 27.9245 19.8053C27.5444 20.057 27.2462 20.4143 27.0667 20.8333Z" stroke="#132D46" stroke-width="3" stroke-linecap="round" stroke-linejoin="round"/>
</g>
<defs>
<clipPath id="clip0_1013_1539">
<rect width="34" height="34" fill="white"/>
</clipPath>
</defs>
</svg>
