<svg width="29" height="28" viewBox="0 0 29 28" fill="none" xmlns="http://www.w3.org/2000/svg">
<g clip-path="url(#clip0_822_775)">
<path d="M14.1569 17.1572C16.0899 17.1572 17.6569 15.5902 17.6569 13.6572C17.6569 11.7242 16.0899 10.1572 14.1569 10.1572C12.2239 10.1572 10.6569 11.7242 10.6569 13.6572C10.6569 15.5902 12.2239 17.1572 14.1569 17.1572Z" stroke="#132D46" stroke-width="2" stroke-linecap="round" stroke-linejoin="round"/>
<path d="M22.7901 17.1566C22.6348 17.5085 22.5885 17.8988 22.6571 18.2773C22.7258 18.6557 22.9062 19.0049 23.1751 19.2799L23.2452 19.3499C23.4621 19.5666 23.6342 19.824 23.7516 20.1072C23.869 20.3905 23.9295 20.6941 23.9295 21.0007C23.9295 21.3074 23.869 21.611 23.7516 21.8943C23.6342 22.1775 23.4621 22.4349 23.2452 22.6516C23.0284 22.8685 22.7711 23.0406 22.4878 23.158C22.2046 23.2755 21.901 23.3359 21.5943 23.3359C21.2877 23.3359 20.9841 23.2755 20.7008 23.158C20.4175 23.0406 20.1602 22.8685 19.9435 22.6516L19.8735 22.5816C19.5985 22.3126 19.2493 22.1322 18.8708 22.0636C18.4924 21.9949 18.102 22.0413 17.7502 22.1966C17.4051 22.3445 17.1108 22.59 16.9035 22.903C16.6962 23.216 16.585 23.5828 16.5835 23.9582V24.1566C16.5835 24.7754 16.3377 25.3689 15.9001 25.8065C15.4625 26.2441 14.869 26.4899 14.2502 26.4899C13.6313 26.4899 13.0378 26.2441 12.6002 25.8065C12.1627 25.3689 11.9168 24.7754 11.9168 24.1566V24.0516C11.9078 23.6654 11.7828 23.2909 11.5581 22.9767C11.3334 22.6625 11.0193 22.4232 10.6568 22.2899C10.3049 22.1346 9.91459 22.0883 9.53613 22.1569C9.15767 22.2255 8.80844 22.4059 8.53349 22.6749L8.46349 22.7449C8.24678 22.9619 7.98944 23.134 7.70618 23.2514C7.42292 23.3688 7.11929 23.4292 6.81265 23.4292C6.50602 23.4292 6.20239 23.3688 5.91912 23.2514C5.63586 23.134 5.37852 22.9619 5.16182 22.7449C4.94487 22.5282 4.77277 22.2709 4.65535 21.9876C4.53792 21.7043 4.47748 21.4007 4.47748 21.0941C4.47748 20.7874 4.53792 20.4838 4.65535 20.2005C4.77277 19.9173 4.94487 19.6599 5.16182 19.4432L5.23182 19.3732C5.50078 19.0983 5.6812 18.7491 5.74982 18.3706C5.81845 17.9921 5.77212 17.6018 5.61682 17.2499C5.46893 16.9048 5.22337 16.6106 4.91036 16.4033C4.59736 16.196 4.23057 16.0847 3.85515 16.0832H3.65682C3.03798 16.0832 2.44449 15.8374 2.0069 15.3998C1.56932 14.9622 1.32349 14.3687 1.32349 13.7499C1.32349 13.1311 1.56932 12.5376 2.0069 12.1C2.44449 11.6624 3.03798 11.4166 3.65682 11.4166H3.76182C4.14798 11.4075 4.52249 11.2825 4.83667 11.0578C5.15084 10.8331 5.39015 10.5191 5.52349 10.1566C5.67879 9.80469 5.72511 9.41435 5.65649 9.03589C5.58787 8.65743 5.40745 8.3082 5.13849 8.03324L5.06849 7.96324C4.85154 7.74654 4.67944 7.4892 4.56201 7.20594C4.44459 6.92267 4.38415 6.61904 4.38415 6.31241C4.38415 6.00577 4.44459 5.70214 4.56201 5.41888C4.67944 5.13562 4.85154 4.87828 5.06849 4.66157C5.28519 4.44463 5.54253 4.27253 5.82579 4.1551C6.10905 4.03768 6.41268 3.97724 6.71932 3.97724C7.02596 3.97724 7.32958 4.03768 7.61285 4.1551C7.89611 4.27253 8.15345 4.44463 8.37015 4.66157L8.44015 4.73157C8.71511 5.00053 9.06434 5.18096 9.4428 5.24958C9.82126 5.3182 10.2116 5.27188 10.5635 5.11657H10.6568C11.0019 4.96868 11.2962 4.72312 11.5035 4.41012C11.7107 4.09711 11.822 3.73033 11.8235 3.35491V3.15658C11.8235 2.53774 12.0693 1.94424 12.5069 1.50666C12.9445 1.06907 13.538 0.823242 14.1568 0.823242C14.7757 0.823242 15.3691 1.06907 15.8067 1.50666C16.2443 1.94424 16.4902 2.53774 16.4902 3.15658V3.26158C16.4916 3.63699 16.6029 4.00378 16.8102 4.31678C17.0175 4.62979 17.3118 4.87535 17.6568 5.02324C18.0087 5.17854 18.399 5.22487 18.7775 5.15625C19.156 5.08762 19.5052 4.9072 19.7802 4.63824L19.8501 4.56824C20.0669 4.3513 20.3242 4.17919 20.6075 4.06177C20.8907 3.94435 21.1943 3.88391 21.501 3.88391C21.8076 3.88391 22.1112 3.94435 22.3945 4.06177C22.6778 4.17919 22.9351 4.3513 23.1518 4.56824C23.3688 4.78495 23.5409 5.04229 23.6583 5.32555C23.7757 5.60881 23.8362 5.91244 23.8362 6.21907C23.8362 6.52571 23.7757 6.82934 23.6583 7.1126C23.5409 7.39586 23.3688 7.6532 23.1518 7.86991L23.0818 7.93991C22.8129 8.21487 22.6324 8.56409 22.5638 8.94255C22.4952 9.32102 22.5415 9.71136 22.6968 10.0632V10.1566C22.8447 10.5016 23.0903 10.7959 23.4033 11.0032C23.7163 11.2105 24.0831 11.3217 24.4585 11.3232H24.6568C25.2757 11.3232 25.8691 11.5691 26.3067 12.0067C26.7443 12.4442 26.9901 13.0377 26.9901 13.6566C26.9901 14.2754 26.7443 14.8689 26.3067 15.3065C25.8691 15.7441 25.2757 15.9899 24.6568 15.9899H24.5518C24.1764 15.9914 23.8096 16.1026 23.4966 16.3099C23.1836 16.5172 22.938 16.8115 22.7901 17.1566Z" stroke="#132D46" stroke-width="2" stroke-linecap="round" stroke-linejoin="round"/>
</g>
<defs>
<clipPath id="clip0_822_775">
<rect width="28" height="28" fill="white" transform="translate(0.5)"/>
</clipPath>
</defs>
</svg>
